<svg width="71" height="70" viewBox="0 0 71 70" fill="none" xmlns="http://www.w3.org/2000/svg">
<rect x="0.984558" width="70" height="70" rx="35" fill="white" fill-opacity="0.12"/>
<path d="M25.0758 27.4545V42H22.8741V29.6562H22.7889L19.3088 31.929V29.8267L22.938 27.4545H25.0758ZM34.0744 42.2415C32.9522 42.2367 31.9934 41.9408 31.198 41.3537C30.4025 40.7666 29.7941 39.9119 29.3727 38.7898C28.9513 37.6676 28.7406 36.3158 28.7406 34.7344C28.7406 33.1577 28.9513 31.8106 29.3727 30.6932C29.7988 29.5758 30.4096 28.7235 31.2051 28.1364C32.0053 27.5492 32.9617 27.2557 34.0744 27.2557C35.1871 27.2557 36.1412 27.5516 36.9366 28.1435C37.7321 28.7306 38.3405 29.5829 38.7619 30.7003C39.188 31.813 39.4011 33.1577 39.4011 34.7344C39.4011 36.3205 39.1904 37.6747 38.769 38.7969C38.3476 39.9143 37.7392 40.7689 36.9437 41.3608C36.1483 41.9479 35.1918 42.2415 34.0744 42.2415ZM34.0744 40.3452C35.0592 40.3452 35.8287 39.8646 36.3826 38.9034C36.9413 37.9422 37.2207 36.5526 37.2207 34.7344C37.2207 33.527 37.0929 32.5066 36.8372 31.6733C36.5862 30.8352 36.224 30.2008 35.7505 29.7699C35.2818 29.3343 34.7231 29.1165 34.0744 29.1165C33.0943 29.1165 32.3249 29.5994 31.7662 30.5653C31.2074 31.5312 30.9257 32.9209 30.921 34.7344C30.921 35.9465 31.0465 36.9716 31.2974 37.8097C31.5531 38.643 31.9153 39.2751 32.3841 39.706C32.8528 40.1321 33.4163 40.3452 34.0744 40.3452ZM46.2246 39.5568V29.9545H48.1351V39.5568H46.2246ZM42.3823 35.7074V33.804H51.9846V35.7074H42.3823Z" fill="white"/>
</svg>
