<svg width="16" height="16" viewBox="0 0 16 16" fill="none" xmlns="http://www.w3.org/2000/svg">
<path d="M9.62666 12.7L10.64 13.7134L12.6667 11.6867" stroke="#949698" stroke-linecap="round" stroke-linejoin="round"/>
<path d="M8.10667 7.24665C8.04 7.23998 7.96 7.23998 7.88667 7.24665C6.3 7.19331 5.04 5.89331 5.04 4.29331C5.03334 2.65998 6.36 1.33331 7.99334 1.33331C9.62667 1.33331 10.9533 2.65998 10.9533 4.29331C10.9533 5.89331 9.68667 7.19331 8.10667 7.24665Z" stroke="#949698" stroke-linecap="round" stroke-linejoin="round"/>
<path d="M7.99333 14.54C6.78 14.54 5.57333 14.2333 4.65333 13.62C3.04 12.54 3.04 10.78 4.65333 9.70668C6.48666 8.48002 9.49333 8.48002 11.3267 9.70668" stroke="#949698" stroke-linecap="round" stroke-linejoin="round"/>
</svg>
