<svg width="44" height="44" viewBox="0 0 44 44" fill="none" xmlns="http://www.w3.org/2000/svg">
<rect width="44" height="44" rx="22" fill="#2F3137" fill-opacity="0.03"/>
<mask id="mask0_1_160" style="mask-type:alpha" maskUnits="userSpaceOnUse" x="10" y="10" width="24" height="24">
<rect x="10" y="10" width="24" height="24" fill="#D9D9D9"/>
</mask>
<g mask="url(#mask0_1_160)">
<path d="M22.0001 30.3249C21.7668 30.3249 21.5293 30.2832 21.2876 30.1999C21.046 30.1166 20.8335 29.9832 20.6501 29.7999L18.9251 28.2249C17.1585 26.6082 15.5626 25.0041 14.1376 23.4124C12.7126 21.8207 12.0001 20.0666 12.0001 18.1499C12.0001 16.5832 12.5251 15.2749 13.5751 14.2249C14.6251 13.1749 15.9335 12.6499 17.5001 12.6499C18.3835 12.6499 19.2168 12.8374 20.0001 13.2124C20.7835 13.5874 21.4501 14.0999 22.0001 14.7499C22.5501 14.0999 23.2168 13.5874 24.0001 13.2124C24.7835 12.8374 25.6168 12.6499 26.5001 12.6499C28.0668 12.6499 29.3751 13.1749 30.4251 14.2249C31.4751 15.2749 32.0001 16.5832 32.0001 18.1499C32.0001 20.0666 31.2918 21.8249 29.8751 23.4249C28.4585 25.0249 26.8501 26.6332 25.0501 28.2499L23.3501 29.7999C23.1668 29.9832 22.9543 30.1166 22.7126 30.1999C22.471 30.2832 22.2335 30.3249 22.0001 30.3249ZM21.0501 16.7499C20.5668 16.0666 20.0501 15.5457 19.5001 15.1874C18.9501 14.8291 18.2835 14.6499 17.5001 14.6499C16.5001 14.6499 15.6668 14.9832 15.0001 15.6499C14.3335 16.3166 14.0001 17.1499 14.0001 18.1499C14.0001 19.0166 14.3085 19.9374 14.9251 20.9124C15.5418 21.8874 16.2793 22.8332 17.1376 23.7499C17.996 24.6666 18.8793 25.5249 19.7876 26.3249C20.696 27.1249 21.4335 27.7832 22.0001 28.2999C22.5668 27.7832 23.3043 27.1249 24.2126 26.3249C25.121 25.5249 26.0043 24.6666 26.8626 23.7499C27.721 22.8332 28.4585 21.8874 29.0751 20.9124C29.6918 19.9374 30.0001 19.0166 30.0001 18.1499C30.0001 17.1499 29.6668 16.3166 29.0001 15.6499C28.3335 14.9832 27.5001 14.6499 26.5001 14.6499C25.7168 14.6499 25.0501 14.8291 24.5001 15.1874C23.9501 15.5457 23.4335 16.0666 22.9501 16.7499C22.8335 16.9166 22.6918 17.0416 22.5251 17.1249C22.3585 17.2082 22.1835 17.2499 22.0001 17.2499C21.8168 17.2499 21.6418 17.2082 21.4751 17.1249C21.3085 17.0416 21.1668 16.9166 21.0501 16.7499Z" fill="#949698"/>
</g>
</svg>
