<svg width="31" height="31" viewBox="0 0 31 31" fill="none" xmlns="http://www.w3.org/2000/svg">
<rect x="0.119995" y="0.0599995" width="30.88" height="30.88" rx="15.44" fill="#2F3137" fill-opacity="0.03"/>
<rect x="0.619995" y="0.559999" width="29.88" height="29.88" rx="14.94" stroke="#2F3137" stroke-opacity="0.12"/>
<path d="M10.0533 13.9267C9.18798 13.9267 8.47998 14.6347 8.47998 15.5C8.47998 16.3653 9.18798 17.0733 10.0533 17.0733C10.9186 17.0733 11.6266 16.3653 11.6266 15.5C11.6266 14.6347 10.9186 13.9267 10.0533 13.9267Z" stroke="#949698" stroke-width="1.5"/>
<path d="M21.0667 13.9267C20.2013 13.9267 19.4933 14.6347 19.4933 15.5C19.4933 16.3653 20.2013 17.0733 21.0667 17.0733C21.932 17.0733 22.64 16.3653 22.64 15.5C22.64 14.6347 21.932 13.9267 21.0667 13.9267Z" stroke="#949698" stroke-width="1.5"/>
<path d="M15.56 13.9267C14.6947 13.9267 13.9867 14.6347 13.9867 15.5C13.9867 16.3653 14.6947 17.0733 15.56 17.0733C16.4253 17.0733 17.1333 16.3653 17.1333 15.5C17.1333 14.6347 16.4253 13.9267 15.56 13.9267Z" stroke="#949698" stroke-width="1.5"/>
</svg>
