<svg width="133" height="49" viewBox="0 0 133 49" fill="none" xmlns="http://www.w3.org/2000/svg">
<g filter="url(#filter0_b_1_262)">
<rect y="0.5" width="133" height="48" rx="24" fill="#3775F1" fill-opacity="0.05"/>
<rect x="0.5" y="1" width="132" height="47" rx="23.5" stroke="#3775F1"/>
<path d="M27.7775 16.9545V31.5H25.7605L18.367 20.8324H18.2321V31.5H16.0375V16.9545H18.0687L25.4693 27.6364H25.6042V16.9545H27.7775ZM35.5101 31.7202C34.4353 31.7202 33.5096 31.4905 32.7331 31.0312C31.9614 30.5672 31.3648 29.9162 30.9434 29.0781C30.5267 28.2353 30.3184 27.2481 30.3184 26.1165C30.3184 24.9991 30.5267 24.0142 30.9434 23.1619C31.3648 22.3097 31.9519 21.6444 32.7047 21.1662C33.4623 20.688 34.3477 20.4489 35.361 20.4489C35.9765 20.4489 36.5731 20.5507 37.1507 20.7543C37.7284 20.9579 38.2469 21.2775 38.7061 21.7131C39.1654 22.1487 39.5276 22.7145 39.7928 23.4105C40.0579 24.1018 40.1905 24.9422 40.1905 25.9318V26.6847H31.5186V25.0938H38.1096C38.1096 24.535 37.9959 24.0402 37.7686 23.6094C37.5414 23.1738 37.2218 22.8305 36.8098 22.5795C36.4026 22.3286 35.9244 22.2031 35.3752 22.2031C34.7786 22.2031 34.2578 22.3499 33.8127 22.6435C33.3723 22.9323 33.0314 23.3111 32.79 23.7798C32.5532 24.2438 32.4348 24.7481 32.4348 25.2926V26.5355C32.4348 27.2647 32.5627 27.8849 32.8184 28.3963C33.0788 28.9077 33.441 29.2983 33.905 29.5682C34.369 29.8333 34.9112 29.9659 35.5314 29.9659C35.9339 29.9659 36.3008 29.9091 36.6323 29.7955C36.9637 29.6771 37.2502 29.5019 37.4917 29.2699C37.7331 29.0379 37.9178 28.7514 38.0456 28.4105L40.0556 28.7727C39.8946 29.3646 39.6058 29.883 39.1891 30.3281C38.7772 30.7685 38.2587 31.1117 37.6337 31.358C37.0134 31.5994 36.3056 31.7202 35.5101 31.7202ZM47.1206 35.8182C46.2541 35.8182 45.5083 35.7045 44.8833 35.4773C44.2631 35.25 43.7565 34.9493 43.3635 34.5753C42.9705 34.2012 42.6769 33.7917 42.4828 33.3466L44.3081 32.5938C44.4359 32.8021 44.6064 33.0223 44.8194 33.2543C45.0372 33.491 45.3308 33.6922 45.7001 33.858C46.0742 34.0237 46.5547 34.1065 47.1419 34.1065C47.9468 34.1065 48.612 33.91 49.1376 33.517C49.6632 33.1288 49.926 32.5085 49.926 31.6562V29.5114H49.791C49.6632 29.7434 49.4785 30.0014 49.237 30.2855C49.0003 30.5696 48.6736 30.8158 48.2569 31.0241C47.8403 31.2325 47.2981 31.3366 46.6305 31.3366C45.7688 31.3366 44.9922 31.1354 44.301 30.733C43.6144 30.3258 43.0699 29.7268 42.6674 28.9361C42.2697 28.1406 42.0708 27.1629 42.0708 26.0028C42.0708 24.8428 42.2673 23.8485 42.6603 23.0199C43.0581 22.1913 43.6026 21.5568 44.2939 21.1165C44.9851 20.6714 45.7688 20.4489 46.6447 20.4489C47.3218 20.4489 47.8687 20.5625 48.2853 20.7898C48.702 21.0123 49.0263 21.2727 49.2583 21.571C49.4951 21.8693 49.6774 22.1321 49.8052 22.3594H49.9615V20.5909H52.0424V31.7415C52.0424 32.679 51.8246 33.4484 51.389 34.0497C50.9534 34.651 50.3639 35.0961 49.6206 35.3849C48.8819 35.6738 48.0486 35.8182 47.1206 35.8182ZM47.0993 29.5753C47.71 29.5753 48.2261 29.4332 48.6475 29.1491C49.0737 28.8603 49.3957 28.4484 49.6135 27.9134C49.836 27.3736 49.9473 26.7273 49.9473 25.9744C49.9473 25.2405 49.8384 24.5942 49.6206 24.0355C49.4028 23.4768 49.0832 23.0412 48.6618 22.7287C48.2404 22.4115 47.7195 22.2528 47.0993 22.2528C46.46 22.2528 45.9274 22.4186 45.5012 22.75C45.0751 23.0767 44.7531 23.5218 44.5353 24.0852C44.3223 24.6487 44.2157 25.2784 44.2157 25.9744C44.2157 26.6894 44.3246 27.3168 44.5424 27.8565C44.7602 28.3963 45.0822 28.8177 45.5083 29.1207C45.9392 29.4238 46.4695 29.5753 47.0993 29.5753ZM59.4856 31.7202C58.4629 31.7202 57.5704 31.4858 56.8081 31.017C56.0458 30.5483 55.4539 29.8925 55.0325 29.0497C54.6111 28.2069 54.4004 27.2221 54.4004 26.0952C54.4004 24.9635 54.6111 23.974 55.0325 23.1264C55.4539 22.2789 56.0458 21.6207 56.8081 21.152C57.5704 20.6832 58.4629 20.4489 59.4856 20.4489C60.5083 20.4489 61.4009 20.6832 62.1632 21.152C62.9255 21.6207 63.5173 22.2789 63.9387 23.1264C64.3601 23.974 64.5708 24.9635 64.5708 26.0952C64.5708 27.2221 64.3601 28.2069 63.9387 29.0497C63.5173 29.8925 62.9255 30.5483 62.1632 31.017C61.4009 31.4858 60.5083 31.7202 59.4856 31.7202ZM59.4927 29.9375C60.1556 29.9375 60.7048 29.7623 61.1404 29.4119C61.5761 29.0616 61.898 28.5952 62.1064 28.0128C62.3194 27.4304 62.426 26.7888 62.426 26.0881C62.426 25.392 62.3194 24.7528 62.1064 24.1705C61.898 23.5833 61.5761 23.1122 61.1404 22.7571C60.7048 22.402 60.1556 22.2244 59.4927 22.2244C58.8251 22.2244 58.2711 22.402 57.8308 22.7571C57.3952 23.1122 57.0708 23.5833 56.8578 24.1705C56.6494 24.7528 56.5453 25.392 56.5453 26.0881C56.5453 26.7888 56.6494 27.4304 56.8578 28.0128C57.0708 28.5952 57.3952 29.0616 57.8308 29.4119C58.2711 29.7623 58.8251 29.9375 59.4927 29.9375ZM72.0336 20.5909V22.2955H66.0748V20.5909H72.0336ZM67.6728 17.9773H69.7963V28.2969C69.7963 28.7088 69.8579 29.0189 69.981 29.2273C70.1041 29.4309 70.2627 29.5705 70.4569 29.6463C70.6557 29.7173 70.8712 29.7528 71.1032 29.7528C71.2736 29.7528 71.4228 29.741 71.5506 29.7173C71.6784 29.6937 71.7779 29.6747 71.8489 29.6605L72.2324 31.4148C72.1093 31.4621 71.9341 31.5095 71.7069 31.5568C71.4796 31.6089 71.1955 31.6373 70.8546 31.642C70.2959 31.6515 69.775 31.5521 69.2921 31.3438C68.8091 31.1354 68.4185 30.8134 68.1202 30.3778C67.8219 29.9422 67.6728 29.3954 67.6728 28.7372V17.9773ZM74.3826 31.5V20.5909H76.5062V31.5H74.3826ZM75.4551 18.9077C75.0858 18.9077 74.7685 18.7846 74.5034 18.5384C74.243 18.2874 74.1127 17.9891 74.1127 17.6435C74.1127 17.2931 74.243 16.9948 74.5034 16.7486C74.7685 16.4976 75.0858 16.3722 75.4551 16.3722C75.8244 16.3722 76.1393 16.4976 76.3997 16.7486C76.6648 16.9948 76.7974 17.2931 76.7974 17.6435C76.7974 17.9891 76.6648 18.2874 76.3997 18.5384C76.1393 18.7846 75.8244 18.9077 75.4551 18.9077ZM82.5378 31.7415C81.8465 31.7415 81.2215 31.6136 80.6628 31.358C80.1041 31.0975 79.6614 30.7211 79.3347 30.2287C79.0127 29.7363 78.8517 29.1326 78.8517 28.4176C78.8517 27.8021 78.9701 27.2955 79.2069 26.8977C79.4436 26.5 79.7632 26.1851 80.1657 25.9531C80.5681 25.7211 81.0179 25.5459 81.5151 25.4276C82.0123 25.3092 82.5189 25.2192 83.035 25.1577C83.6884 25.0819 84.2187 25.0204 84.6259 24.973C85.0331 24.9209 85.329 24.8381 85.5137 24.7244C85.6983 24.6108 85.7907 24.4261 85.7907 24.1705V24.1207C85.7907 23.5005 85.6155 23.0199 85.2651 22.679C84.9194 22.3381 84.4034 22.1676 83.7168 22.1676C83.0018 22.1676 82.4384 22.3262 82.0265 22.6435C81.6193 22.956 81.3375 23.304 81.1813 23.6875L79.1855 23.233C79.4223 22.5701 79.7679 22.035 80.2225 21.6278C80.6818 21.2159 81.2097 20.9176 81.8063 20.733C82.4029 20.5436 83.0302 20.4489 83.6884 20.4489C84.124 20.4489 84.5856 20.5009 85.0733 20.6051C85.5658 20.7045 86.025 20.8892 86.4512 21.1591C86.882 21.429 87.2348 21.8149 87.5094 22.3168C87.784 22.8139 87.9213 23.4602 87.9213 24.2557V31.5H85.8475V30.0085H85.7623C85.6249 30.2831 85.419 30.553 85.1444 30.8182C84.8697 31.0833 84.517 31.3035 84.0861 31.4787C83.6552 31.6539 83.1391 31.7415 82.5378 31.7415ZM82.9995 30.0369C83.5866 30.0369 84.0885 29.9209 84.5051 29.6889C84.9266 29.4569 85.2462 29.1539 85.464 28.7798C85.6865 28.401 85.7978 27.9962 85.7978 27.5653V26.1591C85.722 26.2348 85.5752 26.3059 85.3574 26.3722C85.1444 26.4337 84.9005 26.4882 84.6259 26.5355C84.3513 26.5781 84.0837 26.6184 83.8233 26.6562C83.5629 26.6894 83.3451 26.7178 83.1699 26.7415C82.758 26.7936 82.3816 26.8812 82.0407 27.0043C81.7045 27.1274 81.4346 27.3049 81.231 27.5369C81.0321 27.7642 80.9327 28.0672 80.9327 28.446C80.9327 28.9716 81.1268 29.3693 81.5151 29.6392C81.9033 29.9044 82.3981 30.0369 82.9995 30.0369ZM90.9203 31.5V16.9545H93.0439V22.3594H93.1717C93.2948 22.1321 93.4724 21.8693 93.7044 21.571C93.9364 21.2727 94.2583 21.0123 94.6703 20.7898C95.0822 20.5625 95.6267 20.4489 96.3038 20.4489C97.1845 20.4489 97.9705 20.6714 98.6618 21.1165C99.353 21.5616 99.8952 22.2031 100.288 23.0412C100.686 23.8793 100.885 24.8878 100.885 26.0668C100.885 27.2457 100.688 28.2566 100.295 29.0994C99.9023 29.9375 99.3625 30.5838 98.676 31.0384C97.9894 31.4882 97.2058 31.7131 96.3251 31.7131C95.6622 31.7131 95.1201 31.6018 94.6987 31.3793C94.282 31.1567 93.9553 30.8963 93.7186 30.598C93.4818 30.2997 93.2995 30.0346 93.1717 29.8026H92.9941V31.5H90.9203ZM93.0012 26.0455C93.0012 26.8125 93.1125 27.4848 93.335 28.0625C93.5576 28.6402 93.8796 29.0923 94.301 29.419C94.7224 29.741 95.2385 29.902 95.8493 29.902C96.4837 29.902 97.014 29.7339 97.4402 29.3977C97.8663 29.0568 98.1883 28.5952 98.4061 28.0128C98.6286 27.4304 98.7399 26.7746 98.7399 26.0455C98.7399 25.3258 98.631 24.6795 98.4132 24.1065C98.2001 23.5336 97.8781 23.0814 97.4473 22.75C97.0211 22.4186 96.4885 22.2528 95.8493 22.2528C95.2337 22.2528 94.7129 22.4115 94.2868 22.7287C93.8654 23.0459 93.5458 23.4886 93.3279 24.0568C93.1101 24.625 93.0012 25.2879 93.0012 26.0455ZM105.393 16.9545V31.5H103.269V16.9545H105.393ZM112.952 31.7202C111.877 31.7202 110.951 31.4905 110.175 31.0312C109.403 30.5672 108.806 29.9162 108.385 29.0781C107.968 28.2353 107.76 27.2481 107.76 26.1165C107.76 24.9991 107.968 24.0142 108.385 23.1619C108.806 22.3097 109.393 21.6444 110.146 21.1662C110.904 20.688 111.789 20.4489 112.802 20.4489C113.418 20.4489 114.015 20.5507 114.592 20.7543C115.17 20.9579 115.688 21.2775 116.148 21.7131C116.607 22.1487 116.969 22.7145 117.234 23.4105C117.499 24.1018 117.632 24.9422 117.632 25.9318V26.6847H108.96V25.0938H115.551C115.551 24.535 115.437 24.0402 115.21 23.6094C114.983 23.1738 114.663 22.8305 114.251 22.5795C113.844 22.3286 113.366 22.2031 112.817 22.2031C112.22 22.2031 111.699 22.3499 111.254 22.6435C110.814 22.9323 110.473 23.3111 110.231 23.7798C109.995 24.2438 109.876 24.7481 109.876 25.2926V26.5355C109.876 27.2647 110.004 27.8849 110.26 28.3963C110.52 28.9077 110.882 29.2983 111.346 29.5682C111.81 29.8333 112.353 29.9659 112.973 29.9659C113.375 29.9659 113.742 29.9091 114.074 29.7955C114.405 29.6771 114.692 29.5019 114.933 29.2699C115.175 29.0379 115.359 28.7514 115.487 28.4105L117.497 28.7727C117.336 29.3646 117.047 29.883 116.631 30.3281C116.219 30.7685 115.7 31.1117 115.075 31.358C114.455 31.5994 113.747 31.7202 112.952 31.7202Z" fill="#3775F1"/>
</g>
<defs>
<filter id="filter0_b_1_262" x="-25" y="-24.5" width="183" height="98" filterUnits="userSpaceOnUse" color-interpolation-filters="sRGB">
<feFlood flood-opacity="0" result="BackgroundImageFix"/>
<feGaussianBlur in="BackgroundImageFix" stdDeviation="12.5"/>
<feComposite in2="SourceAlpha" operator="in" result="effect1_backgroundBlur_1_262"/>
<feBlend mode="normal" in="SourceGraphic" in2="effect1_backgroundBlur_1_262" result="shape"/>
</filter>
</defs>
</svg>
