<svg width="32" height="31" viewBox="0 0 32 31" fill="none" xmlns="http://www.w3.org/2000/svg">
<rect x="0.23999" y="0.0599995" width="30.88" height="30.88" rx="15.44" fill="#2F3137" fill-opacity="0.03"/>
<rect x="0.73999" y="0.559999" width="29.88" height="29.88" rx="14.94" stroke="#2F3137" stroke-opacity="0.12"/>
<path d="M19.5818 10.9137C21.1552 12.0072 22.2408 13.7457 22.461 15.7517" stroke="#949698" stroke-width="1.5" stroke-linecap="round" stroke-linejoin="round"/>
<path d="M8.98544 15.7911C9.18998 13.7929 10.2598 12.0544 11.8174 10.9531" stroke="#949698" stroke-width="1.5" stroke-linecap="round" stroke-linejoin="round"/>
<path d="M12.6828 22.5328C13.5953 22.9969 14.6337 23.2565 15.7272 23.2565C16.7813 23.2565 17.7725 23.0205 18.6615 22.5879" stroke="#949698" stroke-width="1.5" stroke-linecap="round" stroke-linejoin="round"/>
<path d="M15.7272 12.1173C16.935 12.1173 17.9141 11.1382 17.9141 9.9304C17.9141 8.72259 16.935 7.74347 15.7272 7.74347C14.5194 7.74347 13.5403 8.72259 13.5403 9.9304C13.5403 11.1382 14.5194 12.1173 15.7272 12.1173Z" stroke="#949698" stroke-width="1.5" stroke-linecap="round" stroke-linejoin="round"/>
<path d="M10.0396 21.7304C11.2474 21.7304 12.2265 20.7513 12.2265 19.5435C12.2265 18.3357 11.2474 17.3565 10.0396 17.3565C8.83178 17.3565 7.85266 18.3357 7.85266 19.5435C7.85266 20.7513 8.83178 21.7304 10.0396 21.7304Z" stroke="#949698" stroke-width="1.5" stroke-linecap="round" stroke-linejoin="round"/>
<path d="M21.3204 21.7304C22.5282 21.7304 23.5074 20.7513 23.5074 19.5435C23.5074 18.3357 22.5282 17.3565 21.3204 17.3565C20.1126 17.3565 19.1335 18.3357 19.1335 19.5435C19.1335 20.7513 20.1126 21.7304 21.3204 21.7304Z" stroke="#949698" stroke-width="1.5" stroke-linecap="round" stroke-linejoin="round"/>
</svg>
