<svg width="36" height="52" viewBox="0 0 36 52" fill="none" xmlns="http://www.w3.org/2000/svg">
<path d="M36.19 2.60334H19.81C14 2.60334 12.7167 5.49667 11.97 9.04334L9.33334 21.6667H46.6667L44.03 9.04334C43.2833 5.49667 42 2.60334 36.19 2.60334Z" stroke="#D2D3D4" stroke-width="3.5" stroke-linecap="round" stroke-linejoin="round"/>
<path d="M51.31 42.2467C51.5667 44.9767 49.3734 47.3333 46.5734 47.3333H42.1867C39.6667 47.3333 39.3167 46.26 38.8734 44.93L38.4067 43.53C37.7534 41.6167 37.3334 40.3333 33.9734 40.3333H22.0267C18.6667 40.3333 18.1767 41.78 17.5934 43.53L17.1267 44.93C16.6834 46.26 16.3334 47.3333 13.8134 47.3333H9.42669C6.62669 47.3333 4.43336 44.9767 4.69003 42.2467L5.99669 28.0367C6.32336 24.5367 7.00003 21.6667 13.1134 21.6667H42.8867C49 21.6667 49.6767 24.5367 50.0034 28.0367L51.31 42.2467Z" stroke="#D2D3D4" stroke-width="3.5" stroke-linecap="round" stroke-linejoin="round"/>
<path d="M9.33333 14.6667H7" stroke="#D2D3D4" stroke-width="3.5" stroke-linecap="round" stroke-linejoin="round"/>
<path d="M28 3V7.66667" stroke="#D2D3D4" stroke-width="3.5" stroke-linecap="round" stroke-linejoin="round"/>
<path d="M24.5 7.66667H31.5" stroke="#D2D3D4" stroke-width="3.5" stroke-linecap="round" stroke-linejoin="round"/>
<path d="M14 31H21" stroke="#D2D3D4" stroke-width="3.5" stroke-linecap="round" stroke-linejoin="round"/>
<path d="M35 31H42" stroke="#D2D3D4" stroke-width="3.5" stroke-linecap="round" stroke-linejoin="round"/>
</svg>
