<svg width="32" height="52" viewBox="0 0 32 52" fill="none" xmlns="http://www.w3.org/2000/svg">
<path d="M33.9501 0.666668H22.05C17.85 0.666668 16.9167 2.76669 16.3801 5.35669L14.4667 14.5033H41.5334L39.62 5.35669C39.0834 2.76669 38.1501 0.666668 33.9501 0.666668Z" stroke="#D2D3D4" stroke-width="3.5" stroke-linecap="round" stroke-linejoin="round"/>
<path d="M44.8933 29.4134C45.08 31.3967 43.4933 33.1001 41.4633 33.1001H38.29C36.47 33.1001 36.2133 32.3301 35.8867 31.3501L35.5367 30.3466C35.07 28.9699 34.7667 28.0366 32.3167 28.0366H23.66C21.2333 28.0366 20.86 29.0866 20.44 30.3466L20.09 31.3501C19.7633 32.3067 19.5067 33.1001 17.6867 33.1001H14.5133C12.4833 33.1001 10.8967 31.3967 11.0833 29.4134L12.04 19.1001C12.2733 16.5567 12.7633 14.48 17.1966 14.48H38.78C43.2133 14.48 43.7033 16.5567 43.9367 19.1001L44.8933 29.4134Z" stroke="#D2D3D4" stroke-width="3.5" stroke-linecap="round" stroke-linejoin="round"/>
<path d="M14.4667 9.41667H12.7633" stroke="#D2D3D4" stroke-width="3.5" stroke-linecap="round" stroke-linejoin="round"/>
<path d="M17.85 21.27H22.9133" stroke="#D2D3D4" stroke-width="3.5" stroke-linecap="round" stroke-linejoin="round"/>
<path d="M33.0866 21.27H38.15" stroke="#D2D3D4" stroke-width="3.5" stroke-linecap="round" stroke-linejoin="round"/>
<path d="M28 35.6667V38" stroke="#D2D3D4" stroke-width="3.5" stroke-linecap="round" stroke-linejoin="round"/>
<path d="M28 45V47.3333" stroke="#D2D3D4" stroke-width="3.5" stroke-linecap="round" stroke-linejoin="round"/>
<path d="M6.99999 38L4.66666 47.3333" stroke="#D2D3D4" stroke-width="3.5" stroke-linecap="round" stroke-linejoin="round"/>
</svg>
