<svg width="40" height="52" viewBox="0 0 40 52" fill="none" xmlns="http://www.w3.org/2000/svg">
<path d="M44.66 41.5C48.79 37.3 51.3333 31.5133 51.3333 25.1667C51.3333 12.2867 40.88 1.83334 28 1.83334C15.12 1.83334 4.66667 12.2867 4.66667 25.1667C4.66667 31.5133 7.18666 37.2533 11.2933 41.4767" stroke="#D2D3D4" stroke-width="3.5" stroke-miterlimit="10" stroke-linecap="round" stroke-linejoin="round"/>
<path d="M28 46.1667C32.3557 46.1667 35.8867 42.6357 35.8867 38.28C35.8867 33.9243 32.3557 30.3933 28 30.3933C23.6443 30.3933 20.1133 33.9243 20.1133 38.28C20.1133 42.6357 23.6443 46.1667 28 46.1667Z" stroke="#D2D3D4" stroke-width="3.5" stroke-miterlimit="10" stroke-linecap="round" stroke-linejoin="round"/>
<path d="M35.5833 24H37.3333C39.2467 24 40.8333 22.4367 40.8333 20.5C40.8333 18.5867 39.2467 17 37.3333 17C35.42 17 33.8333 18.5633 33.8333 20.5V22.25C33.8333 23.2067 34.6267 24 35.5833 24Z" stroke="#D2D3D4" stroke-width="3.5" stroke-miterlimit="10" stroke-linecap="round" stroke-linejoin="round"/>
</svg>
