<svg width="32" height="52" viewBox="0 0 32 52" fill="none" xmlns="http://www.w3.org/2000/svg">
<path d="M4.66667 12.3333V45C4.66667 46.9367 6.85995 48.0333 8.39995 46.8667L12.39 43.88C13.3233 43.18 14.63 43.2733 15.47 44.1133L19.3433 48.01C20.2533 48.92 21.7467 48.92 22.6567 48.01L26.5767 44.09C27.3934 43.2733 28.7 43.18 29.61 43.88L33.6001 46.8667C35.1401 48.01 37.3333 46.9133 37.3333 45V5.33334C37.3333 2.76667 39.4333 0.666672 42 0.666672H16.3333H14C7.00001 0.666672 4.66667 4.84334 4.66667 10V12.3333Z" stroke="#D2D3D4" stroke-width="3.5" stroke-miterlimit="10" stroke-linecap="round" stroke-linejoin="round"/>
<path d="M14 17H28" stroke="#D2D3D4" stroke-width="3.5" stroke-linecap="round" stroke-linejoin="round"/>
<path d="M15.75 26.3333H26.25" stroke="#D2D3D4" stroke-width="3.5" stroke-linecap="round" stroke-linejoin="round"/>
</svg>
