<svg width="36" height="52" viewBox="0 0 36 52" fill="none" xmlns="http://www.w3.org/2000/svg">
<path d="M28.3733 21.3633C28.14 21.34 27.86 21.34 27.6033 21.3633C22.05 21.1767 17.64 16.6267 17.64 11.0267C17.64 5.31001 22.26 0.666672 28 0.666672C33.7167 0.666672 38.36 5.31001 38.36 11.0267C38.3367 16.6267 33.9267 21.1767 28.3733 21.3633Z" stroke="#D2D3D4" stroke-width="3.5" stroke-linecap="round" stroke-linejoin="round"/>
<path d="M16.7067 29.9733C11.06 33.7533 11.06 39.9133 16.7067 43.67C23.1233 47.9633 33.6467 47.9633 40.0633 43.67C45.71 39.89 45.71 33.73 40.0633 29.9733C33.67 25.7033 23.1467 25.7033 16.7067 29.9733Z" stroke="#D2D3D4" stroke-width="3.5" stroke-linecap="round" stroke-linejoin="round"/>
</svg>
