<svg width="32" height="52" viewBox="0 0 32 52" fill="none" xmlns="http://www.w3.org/2000/svg">
<path d="M23.3333 42.6667C23.3333 45.244 25.4227 47.3333 28 47.3333C30.5773 47.3333 32.6667 45.244 32.6667 42.6667C32.6667 40.0893 30.5773 38 28 38C25.4227 38 23.3333 40.0893 23.3333 42.6667Z" stroke="#D2D3D4" stroke-width="3.5" stroke-linecap="round" stroke-linejoin="round"/>
<path d="M4.66667 42.6667C4.66667 45.244 6.756 47.3333 9.33333 47.3333C11.9107 47.3333 14 45.244 14 42.6667C14 40.0893 11.9107 38 9.33333 38C6.756 38 4.66667 40.0893 4.66667 42.6667Z" stroke="#D2D3D4" stroke-width="3.5" stroke-linecap="round" stroke-linejoin="round"/>
<path d="M23.3333 5.33334C23.3333 7.91067 25.4227 10 28 10C30.5773 10 32.6667 7.91067 32.6667 5.33334C32.6667 2.75601 30.5773 0.666672 28 0.666672C25.4227 0.666671 23.3333 2.75601 23.3333 5.33334Z" stroke="#D2D3D4" stroke-width="3.5" stroke-linecap="round" stroke-linejoin="round"/>
<path d="M28 10L28 38" stroke="#D2D3D4" stroke-width="3.5" stroke-linecap="round" stroke-linejoin="round"/>
<path d="M46.6667 38L46.6667 28.6667C46.6667 24 44.3333 21.6667 39.6667 21.6667L16.3333 21.6667C11.6667 21.6667 9.33332 24 9.33332 28.6667L9.33332 38" stroke="#D2D3D4" stroke-width="3.5" stroke-linecap="round" stroke-linejoin="round"/>
</svg>
