<svg width="37" height="51" viewBox="0 0 37 51" fill="none" xmlns="http://www.w3.org/2000/svg">
<g clip-path="url(#clip0_1_225)">
<path d="M47.2034 31.3067L39.13 39.38C33.46 45.05 31.5234 44.9567 25.9234 39.38L12.9267 26.3833C8.40003 21.8567 7.2567 18.8467 12.9267 13.1767L21 5.10332C27.0434 -0.940009 29.68 0.576657 34.2067 5.10332L47.2034 18.1C52.78 23.7 53.2467 25.2633 47.2034 31.3067Z" stroke="#D2D3D4" stroke-width="3.5" stroke-linecap="round" stroke-linejoin="round"/>
<path d="M11.1999 34.1766L12.7399 36.72C14.9099 40.3366 13.2299 43.3 9.00659 43.3C4.78326 43.3 3.10326 40.3366 5.27326 36.72L6.81326 34.1766C8.02659 32.17 10.0099 32.17 11.1999 34.1766Z" stroke="#D2D3D4" stroke-width="3.5" stroke-linecap="round" stroke-linejoin="round"/>
<path d="M51.3333 23.56C38.36 20.0367 24.6867 19.92 11.6667 23.2567L10.5 23.56" stroke="#D2D3D4" stroke-width="3.5" stroke-linecap="round" stroke-linejoin="round"/>
</g>
<defs>
<clipPath id="clip0_1_225">
<rect width="56" height="56" fill="white" transform="matrix(-1 0 0 1 56 -5)"/>
</clipPath>
</defs>
</svg>
